<svg width="25" height="24" viewBox="0 0 25 24" fill="none" xmlns="http://www.w3.org/2000/svg">
<path d="M12.7597 7.9983C10.5936 7.9983 8.82584 9.79651 8.82584 12C8.82584 14.2035 10.5936 16.0017 12.7597 16.0017C14.9259 16.0017 16.6936 14.2035 16.6936 12C16.6936 9.79651 14.9259 7.9983 12.7597 7.9983ZM24.5584 12C24.5584 10.3429 24.5732 8.70077 24.4817 7.04665C24.3902 5.12536 23.9593 3.4202 22.5782 2.01525C21.1941 0.607302 19.5208 0.172009 17.6321 0.0789456C16.003 -0.0141172 14.3888 0.000892936 12.7627 0.000892936C11.1336 0.000892936 9.51936 -0.0141172 7.89328 0.0789456C6.00455 0.172009 4.3283 0.610305 2.94716 2.01525C1.56307 3.42321 1.13516 5.12536 1.04367 7.04665C0.952186 8.70377 0.966942 10.3459 0.966942 12C0.966942 13.6541 0.952186 15.2992 1.04367 16.9533C1.13516 18.8746 1.56603 20.5798 2.94716 21.9847C4.33125 23.3927 6.00455 23.828 7.89328 23.9211C9.52232 24.0141 11.1366 23.9991 12.7627 23.9991C14.3917 23.9991 16.006 24.0141 17.6321 23.9211C19.5208 23.828 21.1971 23.3897 22.5782 21.9847C23.9623 20.5768 24.3902 18.8746 24.4817 16.9533C24.5761 15.2992 24.5584 13.6571 24.5584 12ZM12.7597 18.1572C9.41017 18.1572 6.70692 15.4073 6.70692 12C6.70692 8.5927 9.41017 5.84284 12.7597 5.84284C16.1093 5.84284 18.8125 8.5927 18.8125 12C18.8125 15.4073 16.1093 18.1572 12.7597 18.1572ZM19.0604 7.02864C18.2784 7.02864 17.6468 6.38621 17.6468 5.59067C17.6468 4.79513 18.2784 4.1527 19.0604 4.1527C19.8425 4.1527 20.474 4.79513 20.474 5.59067C20.4743 5.77957 20.4378 5.96667 20.3669 6.14124C20.2959 6.31581 20.1918 6.47442 20.0605 6.608C19.9292 6.74157 19.7733 6.84748 19.6017 6.91967C19.43 6.99185 19.2461 7.02888 19.0604 7.02864Z" fill="#4DA8FF"/>
</svg>
