<svg width="25" height="24" viewBox="0 0 25 24" fill="none" xmlns="http://www.w3.org/2000/svg">
<path d="M12.764 1.00403e-06C6.24561 -0.00268026 0.966064 5.36521 0.966064 11.9906C0.966064 17.2298 4.26875 21.6834 8.86825 23.319C9.48767 23.4772 9.39278 23.0294 9.39278 22.7237V20.6457C5.81597 21.0721 5.671 18.6643 5.43114 18.2621C4.94615 17.4202 3.79957 17.2057 4.14223 16.8035C4.9567 16.3772 5.78698 16.9107 6.74905 18.3559C7.44491 19.4043 8.80236 19.2274 9.4903 19.0531C9.64055 18.423 9.96212 17.8599 10.4049 17.4229C6.69897 16.7472 5.15438 14.4467 5.15438 11.7118C5.15438 10.3845 5.58402 9.16457 6.42748 8.18054C5.88978 6.55838 6.47756 5.16948 6.55664 4.96302C8.08805 4.8236 9.68008 6.07843 9.80397 6.17764C10.6738 5.939 11.6675 5.81298 12.7798 5.81298C13.8974 5.81298 14.8937 5.94437 15.7715 6.18568C16.0693 5.95509 17.5454 4.87722 18.9687 5.0086C19.0452 5.21506 19.6198 6.57178 19.1137 8.1725C19.9677 9.1592 20.4026 10.3899 20.4026 11.7198C20.4026 14.4601 18.8475 16.7633 15.131 17.4282C15.4493 17.7467 15.702 18.1265 15.8745 18.5454C16.0469 18.9643 16.1355 19.414 16.1352 19.8682V22.8846C16.1563 23.1259 16.1352 23.3645 16.5306 23.3645C21.1986 21.7638 24.5593 17.2781 24.5593 11.9933C24.5593 5.36521 19.2771 1.00403e-06 12.764 1.00403e-06Z" fill="#4DA8FF"/>
</svg>
